# Blender v3.1.2 OBJ File: ''
# www.blender.org
o Pawn_Mesh.001
v 0.137500 0.000000 0.000000
v 0.119078 -0.000000 -0.068750
v 0.068750 -0.000000 -0.119079
v -0.000000 -0.000000 -0.137500
v -0.068750 -0.000000 -0.119078
v -0.119078 -0.000000 -0.068750
v -0.137500 -0.000000 -0.000000
v -0.119079 0.000000 0.068750
v -0.068750 0.000000 0.119078
v -0.000000 0.000000 0.137500
v 0.068750 0.000000 0.119079
v 0.119078 0.000000 0.068750
v 0.137500 0.029487 -0.000000
v 0.119078 0.029487 -0.068750
v 0.068750 0.029487 -0.119078
v -0.000000 0.029487 -0.137500
v -0.068750 0.029487 -0.119078
v -0.119078 0.029487 -0.068750
v -0.137500 0.029487 -0.000000
v -0.119079 0.029487 0.068750
v -0.068750 0.029487 0.119078
v -0.000000 0.029487 0.137500
v 0.068750 0.029487 0.119079
v 0.119078 0.029487 0.068750
v 0.126835 0.073228 -0.000000
v 0.109842 0.073228 -0.063417
v 0.063417 0.073228 -0.109842
v -0.000000 0.073228 -0.126835
v -0.063417 0.073228 -0.109842
v -0.109842 0.073228 -0.063417
v -0.126835 0.073228 -0.000000
v -0.109842 0.073228 0.063417
v -0.063417 0.073228 0.109842
v -0.000000 0.073228 0.126835
v 0.063417 0.073228 0.109842
v 0.109842 0.073228 0.063417
v 0.093602 0.117672 -0.000000
v 0.081062 0.117672 -0.046801
v 0.046801 0.117672 -0.081062
v -0.000000 0.117672 -0.093602
v -0.046801 0.117672 -0.081062
v -0.081062 0.117672 -0.046801
v -0.093602 0.117672 -0.000000
v -0.081062 0.117672 0.046801
v -0.046801 0.117672 0.081062
v -0.000000 0.117672 0.093602
v 0.046801 0.117672 0.081062
v 0.081062 0.117672 0.046801
v 0.093602 0.142426 -0.000000
v 0.081062 0.142426 -0.046801
v 0.046801 0.142426 -0.081062
v -0.000000 0.142426 -0.093602
v -0.046801 0.142426 -0.081062
v -0.081062 0.142426 -0.046801
v -0.093602 0.142426 -0.000000
v -0.081062 0.142426 0.046801
v -0.046801 0.142426 0.081062
v -0.000000 0.142426 0.093602
v 0.046801 0.142426 0.081062
v 0.081062 0.142426 0.046801
v 0.034115 0.249521 -0.000000
v 0.029544 0.249521 -0.017057
v 0.017057 0.249521 -0.029544
v 0.000000 0.249521 -0.034115
v -0.017057 0.249521 -0.029544
v -0.029544 0.249521 -0.017057
v -0.034115 0.249521 -0.000000
v -0.029544 0.249521 0.017057
v -0.017057 0.249521 0.029544
v -0.000000 0.249521 0.034115
v 0.017057 0.249521 0.029544
v 0.029544 0.249521 0.017057
v -0.043286 0.198318 0.024991
v -0.049983 0.198318 -0.000000
v -0.043286 0.198318 -0.024991
v -0.024991 0.198318 -0.043286
v -0.000000 0.198318 -0.049983
v 0.024991 0.198318 -0.043286
v 0.043286 0.198318 -0.024991
v 0.049983 0.198318 -0.000000
v 0.043286 0.198318 0.024991
v 0.024991 0.198318 0.043286
v -0.000000 0.198318 0.049983
v -0.024991 0.198318 0.043286
v 0.082734 0.259162 -0.000000
v 0.071650 0.259162 -0.041367
v 0.041367 0.259162 -0.071650
v -0.000000 0.259162 -0.082734
v -0.041367 0.259162 -0.071650
v -0.071650 0.259162 -0.041367
v -0.082734 0.259162 -0.000000
v -0.071650 0.259162 0.041367
v -0.041367 0.259162 0.071650
v -0.000000 0.259162 0.082734
v 0.041367 0.259162 0.071650
v 0.071650 0.259162 0.041367
v 0.082734 0.283915 -0.000000
v 0.071650 0.283915 -0.041367
v 0.041367 0.283915 -0.071650
v -0.000000 0.283915 -0.082734
v -0.041367 0.283915 -0.071650
v -0.071650 0.283915 -0.041367
v -0.082734 0.283915 -0.000000
v -0.071650 0.283915 0.041367
v -0.041367 0.283915 0.071650
v -0.000000 0.283915 0.082734
v 0.041367 0.283915 0.071650
v 0.071650 0.283915 0.041367
v 0.057219 0.314440 -0.000000
v 0.049553 0.314440 -0.028610
v 0.028609 0.314440 -0.049553
v -0.000000 0.314440 -0.057219
v -0.028610 0.314440 -0.049553
v -0.049553 0.314440 -0.028610
v -0.057219 0.314440 -0.000000
v -0.049553 0.314440 0.028609
v -0.028609 0.314440 0.049553
v -0.000000 0.314440 0.057219
v 0.028609 0.314440 0.049553
v 0.049553 0.314440 0.028610
v 0.075973 0.339501 -0.000000
v 0.065794 0.339501 -0.037986
v 0.037986 0.339501 -0.065794
v -0.000000 0.339501 -0.075973
v -0.037986 0.339501 -0.065794
v -0.065794 0.339501 -0.037986
v -0.075973 0.339501 -0.000000
v -0.065794 0.339501 0.037986
v -0.037986 0.339501 0.065794
v -0.000000 0.339501 0.075973
v 0.037986 0.339501 0.065794
v 0.065794 0.339501 0.037986
v 0.077731 0.384457 -0.000000
v 0.067317 0.384457 -0.038865
v 0.038865 0.384457 -0.067317
v -0.000000 0.384457 -0.077731
v -0.038865 0.384457 -0.067317
v -0.067317 0.384457 -0.038865
v -0.077731 0.384457 -0.000000
v -0.067317 0.384457 0.038865
v -0.038865 0.384457 0.067317
v -0.000000 0.384457 0.077731
v 0.038865 0.384457 0.067317
v 0.067317 0.384457 0.038865
v 0.042780 0.423951 -0.000000
v 0.037049 0.423951 -0.021390
v 0.021390 0.423951 -0.037049
v -0.000000 0.423951 -0.042780
v -0.021390 0.423951 -0.037049
v -0.037049 0.423951 -0.021390
v -0.042780 0.423951 -0.000000
v -0.037049 0.423951 0.021390
v -0.021390 0.423951 0.037049
v -0.000000 0.423951 0.042780
v 0.021390 0.423951 0.037049
v 0.037049 0.423951 0.021390
v -0.000000 0.435878 -0.000000
vt 0.275695 0.957162
vt 0.190463 0.980000
vt 0.105232 0.957162
vt 0.042838 0.894768
vt 0.020000 0.809537
vt 0.042838 0.724305
vt 0.105232 0.661911
vt 0.190463 0.639073
vt 0.275695 0.661911
vt 0.338089 0.724305
vt 0.360927 0.809537
vt 0.338089 0.894768
vt 0.217526 0.130360
vt 0.151687 0.180643
vt 0.141283 0.172748
vt 0.212569 0.118394
vt 0.119780 0.257041
vt 0.106655 0.255369
vt 0.130420 0.339100
vt 0.118123 0.344164
vt 0.180824 0.404733
vt 0.172721 0.415135
vt 0.257361 0.436352
vt 0.255580 0.449243
vt 0.339510 0.425566
vt 0.344467 0.437532
vt 0.405349 0.375283
vt 0.415753 0.383178
vt 0.437256 0.298885
vt 0.450381 0.300557
vt 0.426616 0.216826
vt 0.438912 0.211762
vt 0.376212 0.151193
vt 0.384315 0.140791
vt 0.299675 0.119574
vt 0.301456 0.106684
vt 0.116186 0.153444
vt 0.200491 0.089147
vt 0.075233 0.251194
vt 0.088824 0.356265
vt 0.153409 0.440259
vt 0.251419 0.480624
vt 0.356545 0.466779
vt 0.440850 0.402482
vt 0.481803 0.304732
vt 0.468211 0.199661
vt 0.403626 0.115667
vt 0.305617 0.075302
vt 0.072037 0.119377
vt 0.179209 0.037576
vt 0.020000 0.243785
vt 0.037343 0.377544
vt 0.119509 0.484501
vt 0.244160 0.535926
vt 0.377827 0.518350
vt 0.484999 0.436549
vt 0.537036 0.312141
vt 0.519693 0.178382
vt 0.437527 0.071425
vt 0.312876 0.020000
vt 0.695595 0.345633
vt 0.617024 0.313372
vt 0.633428 0.291870
vt 0.699084 0.318843
vt 0.564989 0.246084
vt 0.589996 0.235736
vt 0.553839 0.161772
vt 0.580566 0.165301
vt 0.586084 0.083088
vt 0.607531 0.099453
vt 0.653488 0.031039
vt 0.663854 0.055973
vt 0.737825 0.020000
vt 0.734334 0.046784
vt 0.816402 0.052277
vt 0.799998 0.073773
vt 0.868427 0.119577
vt 0.843417 0.129921
vt 0.879564 0.203888
vt 0.852834 0.200355
vt 0.847312 0.282559
vt 0.825862 0.266189
vt 0.779917 0.334597
vt 0.769549 0.309657
vt 0.683857 0.225791
vt 0.709901 0.236521
vt 0.666689 0.203564
vt 0.662894 0.175774
vt 0.673505 0.149851
vt 0.695640 0.132727
vt 0.723515 0.129092
vt 0.749566 0.139837
vt 0.766723 0.162084
vt 0.770497 0.189873
vt 0.759879 0.215778
vt 0.737758 0.232887
vt 0.722774 0.175048
vt 0.718167 0.173200
vt 0.725714 0.178986
vt 0.726296 0.183948
vt 0.724317 0.188610
vt 0.720262 0.191713
vt 0.715219 0.192398
vt 0.710607 0.190533
vt 0.707667 0.186583
vt 0.707096 0.181623
vt 0.709082 0.176976
vt 0.713132 0.173886
vt 0.900169 0.418463
vt 0.889396 0.399753
vt 0.932899 0.356355
vt 0.959542 0.402630
vt 0.870712 0.388936
vt 0.886687 0.329600
vt 0.849123 0.388910
vt 0.833290 0.329537
vt 0.830413 0.399682
vt 0.787014 0.356180
vt 0.819595 0.418367
vt 0.760260 0.402392
vt 0.819570 0.439956
vt 0.760196 0.455789
vt 0.830342 0.458666
vt 0.786840 0.502064
vt 0.849026 0.469483
vt 0.833051 0.528818
vt 0.870616 0.469509
vt 0.886449 0.528882
vt 0.889326 0.458737
vt 0.932724 0.502239
vt 0.900143 0.440053
vt 0.959478 0.456028
vt 0.820425 0.965043
vt 0.758392 0.937858
vt 0.776411 0.915348
vt 0.824767 0.936545
vt 0.718290 0.883290
vt 0.745159 0.872808
vt 0.710850 0.815992
vt 0.739364 0.820350
vt 0.738047 0.754000
vt 0.760572 0.772030
vt 0.792573 0.713895
vt 0.803074 0.740776
vt 0.859861 0.706364
vt 0.855518 0.734862
vt 0.921893 0.733549
vt 0.903875 0.756059
vt 0.961996 0.788118
vt 0.935127 0.798599
vt 0.969436 0.855415
vt 0.940921 0.851057
vt 0.942239 0.917408
vt 0.919713 0.899377
vt 0.887712 0.957512
vt 0.877212 0.930631
vt 0.806878 0.877279
vt 0.832045 0.888341
vt 0.790592 0.855088
vt 0.787576 0.827722
vt 0.798657 0.802510
vt 0.820887 0.786196
vt 0.848240 0.783067
vt 0.873408 0.794128
vt 0.889693 0.816319
vt 0.892710 0.843686
vt 0.881629 0.868898
vt 0.859399 0.885211
vt 0.532367 0.784253
vt 0.507454 0.791868
vt 0.487503 0.759851
vt 0.531075 0.746557
vt 0.489641 0.810903
vt 0.456383 0.793139
vt 0.483665 0.836222
vt 0.445971 0.837499
vt 0.491280 0.861075
vt 0.459278 0.881056
vt 0.510292 0.878842
vt 0.492562 0.912139
vt 0.535651 0.884690
vt 0.536944 0.922386
vt 0.560564 0.877074
vt 0.580516 0.909091
vt 0.578378 0.858040
vt 0.611636 0.875804
vt 0.584354 0.832720
vt 0.622047 0.831444
vt 0.576739 0.807868
vt 0.608741 0.787887
vt 0.557727 0.790101
vt 0.575457 0.756804
vt 0.459117 0.714280
vt 0.529226 0.692906
vt 0.409064 0.767786
vt 0.392341 0.839202
vt 0.413716 0.909437
vt 0.467341 0.959521
vt 0.538793 0.976037
vt 0.608902 0.954663
vt 0.658954 0.901157
vt 0.675677 0.829741
vt 0.654303 0.759506
vt 0.600678 0.709422
vt 0.601356 0.587632
vt 0.544809 0.567299
vt 0.581474 0.514657
vt 0.606726 0.523708
vt 0.505994 0.521333
vt 0.564141 0.494220
vt 0.495520 0.462217
vt 0.559413 0.467808
vt 0.515834 0.405853
vt 0.568469 0.442513
vt 0.561634 0.367118
vt 0.588944 0.425160
vt 0.620717 0.356453
vt 0.615347 0.420377
vt 0.677263 0.376786
vt 0.640599 0.429428
vt 0.716079 0.422752
vt 0.657932 0.449865
vt 0.726553 0.481868
vt 0.662660 0.476277
vt 0.706239 0.538231
vt 0.653604 0.501572
vt 0.660439 0.576967
vt 0.633129 0.518925
vt 0.611036 0.472043
vn 0.0000 -1.0000 0.0000
vn 1.0000 -0.0000 0.0000
vn 0.8660 0.0000 -0.5000
vn 0.8601 0.1170 -0.4966
vn 0.9931 0.1170 0.0000
vn 0.5000 0.0000 -0.8660
vn 0.4966 0.1170 -0.8601
vn -0.0000 0.0000 -1.0000
vn -0.0000 0.1170 -0.9931
vn -0.5000 0.0000 -0.8660
vn -0.4966 0.1170 -0.8601
vn -0.8660 -0.0000 -0.5000
vn -0.8601 0.1170 -0.4966
vn -1.0000 -0.0000 -0.0000
vn -0.9931 0.1170 -0.0000
vn -0.8660 0.0000 0.5000
vn -0.8601 0.1170 0.4966
vn -0.5000 -0.0000 0.8660
vn -0.4966 0.1170 0.8601
vn -0.0000 -0.0000 1.0000
vn -0.0000 0.1170 0.9931
vn 0.5000 -0.0000 0.8660
vn 0.4966 0.1170 0.8601
vn 0.8660 -0.0000 0.5000
vn 0.8601 0.1170 0.4966
vn 0.7882 0.4142 -0.4551
vn 0.9102 0.4142 0.0000
vn 0.4551 0.4142 -0.7882
vn 0.0000 0.4142 -0.9102
vn -0.4551 0.4142 -0.7882
vn -0.7882 0.4142 -0.4551
vn -0.9102 0.4142 -0.0000
vn -0.7882 0.4142 0.4551
vn -0.4551 0.4142 0.7882
vn -0.0000 0.4142 0.9102
vn 0.4551 0.4142 0.7882
vn 0.7882 0.4142 0.4551
vn 0.6936 0.5988 -0.4004
vn 0.8009 0.5988 0.0000
vn 0.4004 0.5988 -0.6936
vn 0.0000 0.5988 -0.8009
vn -0.4004 0.5988 -0.6936
vn -0.6936 0.5988 -0.4004
vn -0.8009 0.5988 -0.0000
vn -0.6936 0.5988 0.4004
vn -0.4004 0.5988 0.6936
vn -0.0000 0.5988 0.8009
vn 0.4004 0.5988 0.6936
vn 0.6936 0.5988 0.4004
vn 0.6827 0.6152 -0.3942
vn 0.7617 0.4759 -0.4398
vn 0.8795 0.4759 -0.0000
vn 0.7883 0.6152 0.0000
vn 0.3942 0.6152 -0.6827
vn 0.4398 0.4759 -0.7617
vn -0.0000 0.6152 -0.7883
vn -0.0000 0.4759 -0.8795
vn -0.3942 0.6152 -0.6827
vn -0.4398 0.4759 -0.7617
vn -0.6827 0.6152 -0.3942
vn -0.7617 0.4759 -0.4398
vn -0.7883 0.6152 0.0000
vn -0.8795 0.4759 0.0000
vn -0.6827 0.6152 0.3942
vn -0.7617 0.4759 0.4398
vn -0.3942 0.6152 0.6827
vn -0.4398 0.4759 0.7617
vn -0.0000 0.6152 0.7883
vn -0.0000 0.4759 0.8795
vn 0.3942 0.6152 0.6827
vn 0.4398 0.4759 0.7617
vn 0.6827 0.6152 0.3942
vn 0.7617 0.4759 0.4398
vn 0.8272 0.2960 -0.4776
vn 0.9552 0.2960 0.0000
vn 0.4776 0.2960 -0.8272
vn -0.0000 0.2960 -0.9552
vn -0.4776 0.2960 -0.8272
vn -0.8272 0.2960 -0.4776
vn -0.9552 0.2960 -0.0000
vn -0.8272 0.2960 0.4776
vn -0.4776 0.2960 0.8272
vn -0.0000 0.2960 0.9552
vn 0.4776 0.2960 0.8272
vn 0.8272 0.2960 0.4776
vn 0.1945 -0.9809 -0.0000
vn 0.1684 -0.9809 -0.0973
vn 0.0973 -0.9809 -0.1684
vn -0.0000 -0.9809 -0.1945
vn -0.0973 -0.9809 -0.1684
vn -0.1684 -0.9809 -0.0973
vn -0.1945 -0.9809 0.0000
vn -0.1684 -0.9809 0.0973
vn -0.0973 -0.9809 0.1684
vn -0.0000 -0.9809 0.1945
vn 0.0973 -0.9809 0.1684
vn 0.1684 -0.9809 0.0973
vn 0.7673 0.6413 0.0000
vn 0.6645 0.6413 -0.3836
vn 0.3836 0.6413 -0.6645
vn -0.0000 0.6413 -0.7673
vn -0.3836 0.6413 -0.6645
vn -0.6645 0.6413 -0.3836
vn -0.7673 0.6413 0.0000
vn -0.6645 0.6413 0.3836
vn -0.3836 0.6413 0.6645
vn -0.0000 0.6413 0.7673
vn 0.3836 0.6413 0.6645
vn 0.6645 0.6413 0.3836
vn 0.8006 -0.5991 -0.0000
vn 0.6934 -0.5991 -0.4003
vn 0.8206 -0.3197 -0.4738
vn 0.9475 -0.3197 0.0000
vn 0.4003 -0.5991 -0.6934
vn 0.4738 -0.3197 -0.8206
vn -0.0000 -0.5991 -0.8006
vn -0.0000 -0.3197 -0.9475
vn -0.4003 -0.5991 -0.6934
vn -0.4738 -0.3197 -0.8206
vn -0.6934 -0.5991 -0.4003
vn -0.8206 -0.3197 -0.4738
vn -0.8006 -0.5991 0.0000
vn -0.9475 -0.3197 0.0000
vn -0.6934 -0.5991 0.4003
vn -0.8206 -0.3197 0.4738
vn -0.4003 -0.5991 0.6934
vn -0.4738 -0.3197 0.8206
vn -0.0000 -0.5991 0.8006
vn -0.0000 -0.3197 0.9475
vn 0.4003 -0.5991 0.6934
vn 0.4738 -0.3197 0.8206
vn 0.6934 -0.5991 0.4003
vn 0.8206 -0.3197 0.4738
vn 0.8211 0.3180 -0.4740
vn 0.9481 0.3180 0.0000
vn 0.4740 0.3180 -0.8211
vn -0.0000 0.3180 -0.9481
vn -0.4740 0.3180 -0.8211
vn -0.8211 0.3180 -0.4740
vn -0.9481 0.3180 0.0000
vn -0.8211 0.3180 0.4740
vn -0.4740 0.3180 0.8211
vn -0.0000 0.3180 0.9481
vn 0.4740 0.3180 0.8211
vn 0.8211 0.3180 0.4740
vn 0.6485 0.6627 -0.3744
vn 0.7489 0.6627 -0.0000
vn 0.3744 0.6627 -0.6485
vn -0.0000 0.6627 -0.7489
vn -0.3744 0.6627 -0.6485
vn -0.6485 0.6627 -0.3744
vn -0.7489 0.6627 -0.0000
vn -0.6485 0.6627 0.3744
vn -0.3744 0.6627 0.6485
vn -0.0000 0.6627 0.7489
vn 0.3744 0.6627 0.6485
vn 0.6485 0.6627 0.3744
vn 0.2686 0.9633 -0.0000
vn 0.2326 0.9633 -0.1343
vn -0.0000 1.0000 0.0000
vn 0.1343 0.9633 -0.2326
vn -0.0000 0.9633 -0.2686
vn -0.1343 0.9633 -0.2326
vn -0.2326 0.9633 -0.1343
vn -0.2686 0.9633 -0.0000
vn -0.2326 0.9633 0.1343
vn -0.1343 0.9633 0.2326
vn -0.0000 0.9633 0.2686
vn 0.1343 0.9633 0.2326
vn 0.2326 0.9633 0.1343
s 1
f 11/1/1 10/2/1 9/3/1
f 9/3/1 8/4/1 7/5/1
f 7/5/1 6/6/1 5/7/1
f 9/3/1 7/5/1 5/7/1
f 5/7/1 4/8/1 3/9/1
f 3/9/1 2/10/1 1/11/1
f 5/7/1 3/9/1 1/11/1
f 9/3/1 5/7/1 1/11/1
f 11/1/1 9/3/1 1/11/1
f 12/12/1 11/1/1 1/11/1
f 1/13/2 2/14/3 14/15/4
f 14/15/4 13/16/5 1/13/2
f 2/14/3 3/17/6 15/18/7
f 15/18/7 14/15/4 2/14/3
f 3/17/6 4/19/8 16/20/9
f 16/20/9 15/18/7 3/17/6
f 4/19/8 5/21/10 17/22/11
f 17/22/11 16/20/9 4/19/8
f 5/21/10 6/23/12 18/24/13
f 18/24/13 17/22/11 5/21/10
f 6/23/12 7/25/14 19/26/15
f 19/26/15 18/24/13 6/23/12
f 7/25/14 8/27/16 20/28/17
f 20/28/17 19/26/15 7/25/14
f 8/27/16 9/29/18 21/30/19
f 21/30/19 20/28/17 8/27/16
f 9/29/18 10/31/20 22/32/21
f 22/32/21 21/30/19 9/29/18
f 10/31/20 11/33/22 23/34/23
f 23/34/23 22/32/21 10/31/20
f 11/33/22 12/35/24 24/36/25
f 24/36/25 23/34/23 11/33/22
f 12/35/24 1/13/2 13/16/5
f 13/16/5 24/36/25 12/35/24
f 13/16/5 14/15/4 26/37/26
f 26/37/26 25/38/27 13/16/5
f 14/15/4 15/18/7 27/39/28
f 27/39/28 26/37/26 14/15/4
f 15/18/7 16/20/9 28/40/29
f 28/40/29 27/39/28 15/18/7
f 16/20/9 17/22/11 29/41/30
f 29/41/30 28/40/29 16/20/9
f 17/22/11 18/24/13 30/42/31
f 30/42/31 29/41/30 17/22/11
f 18/24/13 19/26/15 31/43/32
f 31/43/32 30/42/31 18/24/13
f 19/26/15 20/28/17 32/44/33
f 32/44/33 31/43/32 19/26/15
f 20/28/17 21/30/19 33/45/34
f 33/45/34 32/44/33 20/28/17
f 21/30/19 22/32/21 34/46/35
f 34/46/35 33/45/34 21/30/19
f 22/32/21 23/34/23 35/47/36
f 35/47/36 34/46/35 22/32/21
f 23/34/23 24/36/25 36/48/37
f 36/48/37 35/47/36 23/34/23
f 24/36/25 13/16/5 25/38/27
f 25/38/27 36/48/37 24/36/25
f 25/38/27 26/37/26 38/49/38
f 38/49/38 37/50/39 25/38/27
f 26/37/26 27/39/28 39/51/40
f 39/51/40 38/49/38 26/37/26
f 27/39/28 28/40/29 40/52/41
f 40/52/41 39/51/40 27/39/28
f 28/40/29 29/41/30 41/53/42
f 41/53/42 40/52/41 28/40/29
f 29/41/30 30/42/31 42/54/43
f 42/54/43 41/53/42 29/41/30
f 30/42/31 31/43/32 43/55/44
f 43/55/44 42/54/43 30/42/31
f 31/43/32 32/44/33 44/56/45
f 44/56/45 43/55/44 31/43/32
f 32/44/33 33/45/34 45/57/46
f 45/57/46 44/56/45 32/44/33
f 33/45/34 34/46/35 46/58/47
f 46/58/47 45/57/46 33/45/34
f 34/46/35 35/47/36 47/59/48
f 47/59/48 46/58/47 34/46/35
f 35/47/36 36/48/37 48/60/49
f 48/60/49 47/59/48 35/47/36
f 36/48/37 25/38/27 37/50/39
f 37/50/39 48/60/49 36/48/37
f 37/61/2 38/62/3 50/63/3
f 50/63/3 49/64/2 37/61/2
f 38/62/3 39/65/6 51/66/6
f 51/66/6 50/63/3 38/62/3
f 39/65/6 40/67/8 52/68/8
f 52/68/8 51/66/6 39/65/6
f 40/67/8 41/69/10 53/70/10
f 53/70/10 52/68/8 40/67/8
f 41/69/10 42/71/12 54/72/12
f 54/72/12 53/70/10 41/69/10
f 42/71/12 43/73/14 55/74/14
f 55/74/14 54/72/12 42/71/12
f 43/73/14 44/75/16 56/76/16
f 56/76/16 55/74/14 43/73/14
f 44/75/16 45/77/18 57/78/18
f 57/78/18 56/76/16 44/75/16
f 45/77/18 46/79/20 58/80/20
f 58/80/20 57/78/18 45/77/18
f 46/79/20 47/81/22 59/82/22
f 59/82/22 58/80/20 46/79/20
f 47/81/22 48/83/24 60/84/24
f 60/84/24 59/82/22 47/81/22
f 48/83/24 37/61/2 49/64/2
f 49/64/2 60/84/24 48/83/24
f 50/63/50 79/85/51 80/86/52
f 80/86/52 49/64/53 50/63/50
f 51/66/54 78/87/55 79/85/51
f 79/85/51 50/63/50 51/66/54
f 52/68/56 77/88/57 78/87/55
f 78/87/55 51/66/54 52/68/56
f 53/70/58 76/89/59 77/88/57
f 77/88/57 52/68/56 53/70/58
f 54/72/60 75/90/61 76/89/59
f 76/89/59 53/70/58 54/72/60
f 55/74/62 74/91/63 75/90/61
f 75/90/61 54/72/60 55/74/62
f 56/76/64 73/92/65 74/91/63
f 74/91/63 55/74/62 56/76/64
f 57/78/66 84/93/67 73/92/65
f 73/92/65 56/76/64 57/78/66
f 58/80/68 83/94/69 84/93/67
f 84/93/67 57/78/66 58/80/68
f 59/82/70 82/95/71 83/94/69
f 83/94/69 58/80/68 59/82/70
f 60/84/72 81/96/73 82/95/71
f 82/95/71 59/82/70 60/84/72
f 49/64/53 80/86/52 81/96/73
f 81/96/73 60/84/72 49/64/53
f 62/97/74 61/98/75 80/86/52
f 80/86/52 79/85/51 62/97/74
f 63/99/76 62/97/74 79/85/51
f 79/85/51 78/87/55 63/99/76
f 64/100/77 63/99/76 78/87/55
f 78/87/55 77/88/57 64/100/77
f 65/101/78 64/100/77 77/88/57
f 77/88/57 76/89/59 65/101/78
f 66/102/79 65/101/78 76/89/59
f 76/89/59 75/90/61 66/102/79
f 67/103/80 66/102/79 75/90/61
f 75/90/61 74/91/63 67/103/80
f 68/104/81 67/103/80 74/91/63
f 74/91/63 73/92/65 68/104/81
f 69/105/82 68/104/81 73/92/65
f 73/92/65 84/93/67 69/105/82
f 70/106/83 69/105/82 84/93/67
f 84/93/67 83/94/69 70/106/83
f 71/107/84 70/106/83 83/94/69
f 83/94/69 82/95/71 71/107/84
f 72/108/85 71/107/84 82/95/71
f 82/95/71 81/96/73 72/108/85
f 61/98/75 72/108/85 81/96/73
f 81/96/73 80/86/52 61/98/75
f 61/109/86 62/110/87 86/111/87
f 86/111/87 85/112/86 61/109/86
f 62/110/87 63/113/88 87/114/88
f 87/114/88 86/111/87 62/110/87
f 63/113/88 64/115/89 88/116/89
f 88/116/89 87/114/88 63/113/88
f 64/115/89 65/117/90 89/118/90
f 89/118/90 88/116/89 64/115/89
f 65/117/90 66/119/91 90/120/91
f 90/120/91 89/118/90 65/117/90
f 66/119/91 67/121/92 91/122/92
f 91/122/92 90/120/91 66/119/91
f 67/121/92 68/123/93 92/124/93
f 92/124/93 91/122/92 67/121/92
f 68/123/93 69/125/94 93/126/94
f 93/126/94 92/124/93 68/123/93
f 69/125/94 70/127/95 94/128/95
f 94/128/95 93/126/94 69/125/94
f 70/127/95 71/129/96 95/130/96
f 95/130/96 94/128/95 70/127/95
f 71/129/96 72/131/97 96/132/97
f 96/132/97 95/130/96 71/129/96
f 72/131/97 61/109/86 85/112/86
f 85/112/86 96/132/97 72/131/97
f 85/133/2 86/134/3 98/135/3
f 98/135/3 97/136/2 85/133/2
f 86/134/3 87/137/6 99/138/6
f 99/138/6 98/135/3 86/134/3
f 87/137/6 88/139/8 100/140/8
f 100/140/8 99/138/6 87/137/6
f 88/139/8 89/141/10 101/142/10
f 101/142/10 100/140/8 88/139/8
f 89/141/10 90/143/12 102/144/12
f 102/144/12 101/142/10 89/141/10
f 90/143/12 91/145/14 103/146/14
f 103/146/14 102/144/12 90/143/12
f 91/145/14 92/147/16 104/148/16
f 104/148/16 103/146/14 91/145/14
f 92/147/16 93/149/18 105/150/18
f 105/150/18 104/148/16 92/147/16
f 93/149/18 94/151/20 106/152/20
f 106/152/20 105/150/18 93/149/18
f 94/151/20 95/153/22 107/154/22
f 107/154/22 106/152/20 94/151/20
f 95/153/22 96/155/24 108/156/24
f 108/156/24 107/154/22 95/153/22
f 96/155/24 85/133/2 97/136/2
f 97/136/2 108/156/24 96/155/24
f 97/136/98 98/135/99 110/157/99
f 110/157/99 109/158/98 97/136/98
f 98/135/99 99/138/100 111/159/100
f 111/159/100 110/157/99 98/135/99
f 99/138/100 100/140/101 112/160/101
f 112/160/101 111/159/100 99/138/100
f 100/140/101 101/142/102 113/161/102
f 113/161/102 112/160/101 100/140/101
f 101/142/102 102/144/103 114/162/103
f 114/162/103 113/161/102 101/142/102
f 102/144/103 103/146/104 115/163/104
f 115/163/104 114/162/103 102/144/103
f 103/146/104 104/148/105 116/164/105
f 116/164/105 115/163/104 103/146/104
f 104/148/105 105/150/106 117/165/106
f 117/165/106 116/164/105 104/148/105
f 105/150/106 106/152/107 118/166/107
f 118/166/107 117/165/106 105/150/106
f 106/152/107 107/154/108 119/167/108
f 119/167/108 118/166/107 106/152/107
f 107/154/108 108/156/109 120/168/109
f 120/168/109 119/167/108 107/154/108
f 108/156/109 97/136/98 109/158/98
f 109/158/98 120/168/109 108/156/109
f 109/169/110 110/170/111 122/171/112
f 122/171/112 121/172/113 109/169/110
f 110/170/111 111/173/114 123/174/115
f 123/174/115 122/171/112 110/170/111
f 111/173/114 112/175/116 124/176/117
f 124/176/117 123/174/115 111/173/114
f 112/175/116 113/177/118 125/178/119
f 125/178/119 124/176/117 112/175/116
f 113/177/118 114/179/120 126/180/121
f 126/180/121 125/178/119 113/177/118
f 114/179/120 115/181/122 127/182/123
f 127/182/123 126/180/121 114/179/120
f 115/181/122 116/183/124 128/184/125
f 128/184/125 127/182/123 115/181/122
f 116/183/124 117/185/126 129/186/127
f 129/186/127 128/184/125 116/183/124
f 117/185/126 118/187/128 130/188/129
f 130/188/129 129/186/127 117/185/126
f 118/187/128 119/189/130 131/190/131
f 131/190/131 130/188/129 118/187/128
f 119/189/130 120/191/132 132/192/133
f 132/192/133 131/190/131 119/189/130
f 120/191/132 109/169/110 121/172/113
f 121/172/113 132/192/133 120/191/132
f 121/172/113 122/171/112 134/193/134
f 134/193/134 133/194/135 121/172/113
f 122/171/112 123/174/115 135/195/136
f 135/195/136 134/193/134 122/171/112
f 123/174/115 124/176/117 136/196/137
f 136/196/137 135/195/136 123/174/115
f 124/176/117 125/178/119 137/197/138
f 137/197/138 136/196/137 124/176/117
f 125/178/119 126/180/121 138/198/139
f 138/198/139 137/197/138 125/178/119
f 126/180/121 127/182/123 139/199/140
f 139/199/140 138/198/139 126/180/121
f 127/182/123 128/184/125 140/200/141
f 140/200/141 139/199/140 127/182/123
f 128/184/125 129/186/127 141/201/142
f 141/201/142 140/200/141 128/184/125
f 129/186/127 130/188/129 142/202/143
f 142/202/143 141/201/142 129/186/127
f 130/188/129 131/190/131 143/203/144
f 143/203/144 142/202/143 130/188/129
f 131/190/131 132/192/133 144/204/145
f 144/204/145 143/203/144 131/190/131
f 132/192/133 121/172/113 133/194/135
f 133/194/135 144/204/145 132/192/133
f 133/205/135 134/206/134 146/207/146
f 146/207/146 145/208/147 133/205/135
f 134/206/134 135/209/136 147/210/148
f 147/210/148 146/207/146 134/206/134
f 135/209/136 136/211/137 148/212/149
f 148/212/149 147/210/148 135/209/136
f 136/211/137 137/213/138 149/214/150
f 149/214/150 148/212/149 136/211/137
f 137/213/138 138/215/139 150/216/151
f 150/216/151 149/214/150 137/213/138
f 138/215/139 139/217/140 151/218/152
f 151/218/152 150/216/151 138/215/139
f 139/217/140 140/219/141 152/220/153
f 152/220/153 151/218/152 139/217/140
f 140/219/141 141/221/142 153/222/154
f 153/222/154 152/220/153 140/219/141
f 141/221/142 142/223/143 154/224/155
f 154/224/155 153/222/154 141/221/142
f 142/223/143 143/225/144 155/226/156
f 155/226/156 154/224/155 142/223/143
f 143/225/144 144/227/145 156/228/157
f 156/228/157 155/226/156 143/225/144
f 144/227/145 133/205/135 145/208/147
f 145/208/147 156/228/157 144/227/145
f 145/208/158 146/207/159 157/229/160
f 146/207/159 147/210/161 157/229/160
f 147/210/161 148/212/162 157/229/160
f 148/212/162 149/214/163 157/229/160
f 149/214/163 150/216/164 157/229/160
f 150/216/164 151/218/165 157/229/160
f 151/218/165 152/220/166 157/229/160
f 152/220/166 153/222/167 157/229/160
f 153/222/167 154/224/168 157/229/160
f 154/224/168 155/226/169 157/229/160
f 155/226/169 156/228/170 157/229/160
f 156/228/170 145/208/158 157/229/160
