# Blender v3.1.2 OBJ File: ''
# www.blender.org
o Rook_Mesh.001
v 0.137500 -0.000000 0.000000
v 0.119078 -0.000000 -0.068750
v 0.068750 -0.000000 -0.119079
v -0.000000 -0.000000 -0.137500
v -0.068750 -0.000000 -0.119078
v -0.119078 -0.000000 -0.068750
v -0.137500 -0.000000 -0.000000
v -0.119079 0.000000 0.068750
v -0.068750 0.000000 0.119078
v -0.000000 0.000000 0.137500
v 0.068750 0.000000 0.119079
v 0.119078 0.000000 0.068750
v 0.137500 0.104000 -0.000000
v 0.119078 0.104000 -0.068750
v 0.068750 0.104000 -0.119079
v -0.000000 0.104000 -0.137500
v -0.068750 0.104000 -0.119078
v -0.119078 0.104000 -0.068750
v -0.137500 0.104000 -0.000000
v -0.119079 0.104000 0.068750
v -0.068750 0.104000 0.119078
v -0.000000 0.104000 0.137500
v 0.068750 0.104000 0.119079
v 0.119078 0.104000 0.068750
v 0.092501 0.127637 -0.000000
v 0.080108 0.127637 -0.046251
v 0.046251 0.127637 -0.080108
v -0.000000 0.127637 -0.092501
v -0.046251 0.127637 -0.080108
v -0.080108 0.127637 -0.046251
v -0.092501 0.127637 -0.000000
v -0.080108 0.127637 0.046251
v -0.046251 0.127637 0.080108
v -0.000000 0.127637 0.092501
v 0.046251 0.127637 0.080108
v 0.080108 0.127637 0.046251
v 0.092501 0.185691 -0.000000
v 0.080108 0.185691 -0.046251
v 0.046251 0.185691 -0.080108
v -0.000000 0.185691 -0.092501
v -0.046251 0.185691 -0.080108
v -0.080108 0.185691 -0.046251
v -0.092501 0.185691 -0.000000
v -0.080108 0.185691 0.046251
v -0.046251 0.185691 0.080108
v -0.000000 0.185691 0.092501
v 0.046251 0.185691 0.080108
v 0.080108 0.185691 0.046251
v 0.092501 0.201474 -0.000000
v 0.080108 0.201474 -0.046251
v 0.046251 0.201474 -0.080108
v -0.000000 0.201474 -0.092501
v -0.046251 0.201474 -0.080108
v -0.080108 0.201474 -0.046251
v -0.092501 0.201474 -0.000000
v -0.080108 0.201474 0.046251
v -0.046251 0.201474 0.080108
v -0.000000 0.201474 0.092501
v 0.046251 0.201474 0.080108
v 0.080108 0.201474 0.046251
v 0.099571 0.185691 0.000000
v 0.086231 0.185691 -0.049786
v 0.049786 0.185691 -0.086231
v 0.000000 0.185691 -0.099571
v -0.049786 0.185691 -0.086231
v -0.086231 0.185691 -0.049786
v -0.099571 0.185691 0.000000
v -0.086231 0.185691 0.049786
v -0.049786 0.185691 0.086231
v 0.000000 0.185691 0.099571
v 0.049786 0.185691 0.086231
v 0.086231 0.185691 0.049786
v 0.086231 0.201474 -0.049786
v 0.099571 0.201474 0.000000
v 0.086231 0.201474 0.049786
v 0.049786 0.201474 0.086231
v 0.000000 0.201474 0.099571
v -0.049786 0.201474 0.086231
v -0.086231 0.201474 0.049786
v -0.099571 0.201474 0.000000
v -0.086231 0.201474 -0.049786
v -0.049786 0.201474 -0.086231
v 0.000000 0.201474 -0.099571
v 0.049786 0.201474 -0.086231
v 0.066427 0.427646 -0.000000
v 0.057527 0.427646 -0.033213
v 0.033213 0.427646 -0.057527
v 0.000000 0.427646 -0.066427
v -0.033213 0.427646 -0.057527
v -0.057527 0.427646 -0.033213
v -0.066427 0.427646 -0.000000
v -0.057527 0.427646 0.033213
v -0.033213 0.427646 0.057527
v -0.000000 0.427646 0.066427
v 0.033213 0.427646 0.057527
v 0.057527 0.427646 0.033213
v 0.093829 0.521472 -0.000000
v 0.085383 0.557326 -0.049296
v 0.049296 0.557326 -0.085383
v -0.000000 0.521472 -0.093829
v -0.049296 0.557326 -0.085383
v -0.085383 0.557326 -0.049296
v -0.093829 0.521472 -0.000000
v -0.085383 0.557326 0.049296
v -0.049296 0.557326 0.085383
v -0.000000 0.521472 0.093828
v 0.049296 0.557326 0.085383
v 0.085383 0.557326 0.049296
v 0.056877 0.540474 -0.000000
v 0.049257 0.540474 -0.028439
v 0.028439 0.540474 -0.049257
v 0.000000 0.540474 -0.056877
v -0.028439 0.540474 -0.049257
v -0.049257 0.540474 -0.028439
v -0.056877 0.540474 -0.000000
v -0.049257 0.540474 0.028439
v -0.028439 0.540474 0.049257
v -0.000000 0.540474 0.056877
v 0.028439 0.540474 0.049257
v 0.049257 0.540474 0.028439
v 0.094194 0.557326 -0.016412
v 0.082838 0.550961 -0.000000
v 0.094194 0.557326 0.016412
v -0.016412 0.557326 -0.094194
v -0.000000 0.550961 -0.082838
v 0.016412 0.557326 -0.094194
v -0.094194 0.557326 0.016412
v -0.082838 0.550961 -0.000000
v -0.094194 0.557326 -0.016412
v 0.016412 0.557326 0.094194
v -0.000000 0.550961 0.082838
v -0.016412 0.557326 0.094194
v -0.093829 0.521472 -0.000000
vt 0.904861 0.934376
vt 0.830551 0.954287
vt 0.756241 0.934376
vt 0.701843 0.879977
vt 0.681931 0.805667
vt 0.701843 0.731357
vt 0.756241 0.676958
vt 0.830551 0.657047
vt 0.904861 0.676958
vt 0.959260 0.731357
vt 0.979171 0.805667
vt 0.959260 0.879977
vt 0.596449 0.952798
vt 0.522599 0.929004
vt 0.556758 0.824084
vt 0.631216 0.844891
vt 0.447250 0.901322
vt 0.488904 0.794209
vt 0.127193 0.901322
vt 0.117071 0.844329
vt 0.200347 0.829455
vt 0.210508 0.886474
vt 0.106913 0.787390
vt 0.190149 0.772437
vt 0.096684 0.730505
vt 0.179878 0.715420
vt 0.086346 0.673676
vt 0.169498 0.658405
vt 0.075864 0.616903
vt 0.158972 0.601393
vt 0.065200 0.560186
vt 0.148263 0.544384
vt 0.054318 0.503528
vt 0.137336 0.487379
vt 0.043182 0.446927
vt 0.126153 0.430379
vt 0.031755 0.390385
vt 0.114679 0.373385
vt 0.020000 0.333903
vt 0.102531 0.316727
vt 0.825331 0.166924
vt 0.812468 0.136866
vt 0.815913 0.106452
vt 0.833388 0.080447
vt 0.863442 0.066408
vt 0.894363 0.068347
vt 0.920354 0.085386
vt 0.933112 0.116254
vt 0.929205 0.147229
vt 0.911205 0.172606
vt 0.880910 0.185829
vt 0.850644 0.183744
vt 0.577715 0.768706
vt 0.632599 0.785776
vt 0.521213 0.742549
vt 0.430088 0.754738
vt 0.467420 0.708758
vt 0.378444 0.712984
vt 0.418161 0.671452
vt 0.331139 0.670425
vt 0.372427 0.632129
vt 0.286177 0.626298
vt 0.328955 0.590637
vt 0.243503 0.579539
vt 0.287715 0.546708
vt 0.204443 0.530369
vt 0.249882 0.500844
vt 0.169692 0.480008
vt 0.216004 0.454321
vt 0.139136 0.428056
vt 0.185733 0.407102
vt 0.160121 0.359643
vt 0.143621 0.315357
vt 0.609869 0.705800
vt 0.656268 0.731091
vt 0.559750 0.680365
vt 0.510824 0.648804
vt 0.465980 0.615315
vt 0.423368 0.580725
vt 0.382417 0.543121
vt 0.341963 0.502196
vt 0.305655 0.458923
vt 0.274050 0.417115
vt 0.244105 0.375257
vt 0.216741 0.331889
vt 0.190512 0.289210
vt 0.662250 0.725207
vt 0.613250 0.699461
vt 0.620890 0.684073
vt 0.671241 0.708468
vt 0.563974 0.672867
vt 0.572796 0.656981
vt 0.515096 0.642147
vt 0.524858 0.626733
vt 0.470221 0.609720
vt 0.480695 0.595200
vt 0.428522 0.574992
vt 0.439896 0.561198
vt 0.388030 0.537580
vt 0.400455 0.524290
vt 0.348366 0.496417
vt 0.361524 0.483847
vt 0.311526 0.454123
vt 0.324730 0.442675
vt 0.279413 0.413264
vt 0.292746 0.402798
vt 0.250110 0.371409
vt 0.263563 0.361871
vt 0.223017 0.328027
vt 0.236112 0.319356
vt 0.195047 0.284156
vt 0.210140 0.275003
vt 0.624207 0.677766
vt 0.673088 0.700180
vt 0.216610 0.273121
vt 0.241804 0.315925
vt 0.269828 0.357623
vt 0.297980 0.398952
vt 0.330507 0.438002
vt 0.367716 0.478138
vt 0.405800 0.518732
vt 0.444427 0.556001
vt 0.485295 0.589251
vt 0.529150 0.620336
vt 0.576994 0.649787
vt 0.762438 0.448981
vt 0.788948 0.474277
vt 0.732288 0.422113
vt 0.701025 0.394027
vt 0.669509 0.365344
vt 0.636181 0.336840
vt 0.603388 0.306881
vt 0.571165 0.277305
vt 0.538397 0.249140
vt 0.507020 0.220323
vt 0.476679 0.192682
vt 0.447388 0.167637
vt 0.419046 0.142391
vt 0.874289 0.364694
vt 0.893485 0.392477
vt 0.872871 0.425719
vt 0.844672 0.327631
vt 0.782523 0.314947
vt 0.822160 0.303466
vt 0.774040 0.258728
vt 0.796107 0.281141
vt 0.742501 0.227290
vt 0.679290 0.218406
vt 0.680543 0.219831
vt 0.718619 0.205688
vt 0.667372 0.164192
vt 0.690325 0.184591
vt 0.634199 0.134895
vt 0.573543 0.131455
vt 0.609166 0.115060
vt 0.556872 0.076905
vt 0.582062 0.095911
vt 0.518115 0.050511
vt 0.459086 0.057204
vt 0.489840 0.034931
vt 0.776069 0.173448
vt 0.766539 0.140442
vt 0.797549 0.185233
vt 0.774494 0.091907
vt 0.788805 0.063354
vt 0.814295 0.052285
vt 0.825939 0.030374
vt 0.858834 0.020000
vt 0.908184 0.026570
vt 0.937474 0.040996
vt 0.948863 0.066853
vt 0.970825 0.079161
vt 0.980000 0.113377
vt 0.970489 0.162733
vt 0.955236 0.190883
vt 0.929485 0.201103
vt 0.917325 0.222501
vt 0.884648 0.231763
vt 0.836833 0.224525
vt 0.808483 0.210398
vt 0.768618 0.211952
vt 0.787047 0.023185
vt 0.978867 0.039629
vt 0.978487 0.039214
vt 0.955715 0.230837
vn 0.0000 -1.0000 0.0000
vn 1.0000 -0.0000 0.0000
vn 0.8660 -0.0000 -0.5000
vn 0.7585 0.4827 -0.4379
vn 0.8758 0.4827 0.0000
vn 0.5000 -0.0000 -0.8660
vn 0.4379 0.4827 -0.7585
vn -0.0000 -0.0000 -1.0000
vn -0.0000 0.4827 -0.8758
vn -0.5000 -0.0000 -0.8660
vn -0.4379 0.4827 -0.7585
vn -0.8660 -0.0000 -0.5000
vn -0.7585 0.4827 -0.4379
vn -1.0000 -0.0000 -0.0000
vn -0.8758 0.4827 -0.0000
vn -0.8660 0.0000 0.5000
vn -0.7585 0.4827 0.4379
vn -0.5000 0.0000 0.8660
vn -0.4379 0.4827 0.7585
vn -0.0000 0.0000 1.0000
vn -0.0000 0.4827 0.8758
vn 0.5000 0.0000 0.8660
vn 0.4379 0.4827 0.7585
vn 0.8660 -0.0000 0.5000
vn 0.7585 0.4827 0.4379
vn -0.2210 0.9753 0.0000
vn -0.1914 0.9753 0.1105
vn -0.1105 0.9753 0.1914
vn 0.0000 0.9753 0.2210
vn 0.1105 0.9753 0.1914
vn 0.1914 0.9753 0.1105
vn 0.2210 0.9753 -0.0000
vn 0.1914 0.9753 -0.1105
vn 0.1105 0.9753 -0.1914
vn 0.0000 0.9753 -0.2210
vn -0.1105 0.9753 -0.1914
vn -0.1914 0.9753 -0.1105
vn 0.7181 0.5589 -0.4146
vn 0.8292 0.5589 0.0000
vn 0.4146 0.5589 -0.7181
vn -0.0000 0.5589 -0.8292
vn -0.4146 0.5589 -0.7181
vn -0.7181 0.5589 -0.4146
vn -0.8292 0.5589 -0.0000
vn -0.7181 0.5589 0.4146
vn -0.4146 0.5589 0.7181
vn -0.0000 0.5589 0.8292
vn 0.4146 0.5589 0.7181
vn 0.7181 0.5589 0.4146
vn 0.0000 1.0000 0.0000
vn 0.9934 0.1145 0.0000
vn 0.8603 0.1145 -0.4967
vn 0.8641 -0.0661 -0.4989
vn 0.9976 -0.0693 0.0003
vn 0.4967 0.1145 -0.8603
vn 0.4989 -0.0661 -0.8641
vn -0.0000 0.1145 -0.9934
vn 0.0003 -0.0693 -0.9976
vn -0.4967 0.1145 -0.8603
vn -0.4989 -0.0661 -0.8641
vn -0.8603 0.1145 -0.4967
vn -0.8641 -0.0661 -0.4989
vn -0.9934 0.1145 -0.0000
vn -0.9976 -0.0693 -0.0003
vn -0.8603 0.1145 0.4967
vn -0.8641 -0.0661 0.4989
vn -0.4967 0.1145 0.8603
vn -0.4989 -0.0661 0.8641
vn -0.0000 0.1145 0.9934
vn -0.0003 -0.0693 0.9976
vn 0.4967 0.1145 0.8603
vn 0.4989 -0.0661 0.8641
vn 0.8603 0.1145 0.4967
vn 0.8641 -0.0661 0.4989
vn 0.8337 -0.2239 -0.5048
vn 0.9581 -0.1273 -0.2567
vn 0.9596 -0.2633 0.0987
vn 0.4853 -0.2407 -0.8406
vn 0.0987 -0.2633 -0.9596
vn 0.3000 -0.2359 -0.9243
vn -0.5048 -0.2239 -0.8337
vn -0.2567 -0.1273 -0.9581
vn -0.8406 -0.2407 -0.4853
vn -0.9438 -0.2561 0.2089
vn -0.9062 -0.2647 -0.3298
vn -0.9243 -0.2359 -0.3000
vn -0.8337 -0.2239 0.5048
vn -0.9581 -0.1273 0.2567
vn -0.4853 -0.2407 0.8406
vn -0.0987 -0.2633 0.9596
vn -0.3000 -0.2359 0.9243
vn 0.5048 -0.2239 0.8337
vn 0.2567 -0.1273 0.9581
vn 0.8406 -0.2407 0.4853
vn 0.9243 -0.2359 0.3000
vn -0.3727 0.9226 0.0999
vn -0.3244 0.9272 0.1873
vn -0.3746 0.9272 0.0000
vn -0.1873 0.9272 0.3244
vn -0.0999 0.9226 0.3727
vn 0.0000 0.9272 0.3746
vn 0.0999 0.9226 0.3727
vn 0.1873 0.9272 0.3244
vn 0.3244 0.9272 0.1873
vn 0.3727 0.9226 0.0999
vn 0.3746 0.9272 -0.0000
vn 0.3727 0.9226 -0.0999
vn 0.3244 0.9272 -0.1873
vn 0.1873 0.9272 -0.3244
vn 0.0999 0.9226 -0.3727
vn -0.0000 0.9272 -0.3746
vn -0.0999 0.9226 -0.3727
vn -0.1873 0.9272 -0.3244
vn -0.3244 0.9272 -0.1873
vn -0.3727 0.9226 -0.0999
vn 0.9370 0.3492 0.0000
vn 0.7375 0.2749 0.6169
vn -0.0000 0.3492 -0.9370
vn 0.6169 0.2749 -0.7375
vn -0.9236 0.3442 -0.1686
vn -0.7375 0.2749 -0.6169
vn -0.9370 0.3492 0.0000
vn -0.9236 0.3442 0.1686
vn -0.0000 0.3492 0.9370
vn -0.6169 0.2749 0.7375
vn -0.6169 0.2749 -0.7375
vn 0.7375 0.2749 -0.6169
vn 0.6169 0.2749 0.7375
vn -0.7375 0.2749 0.6169
s 1
f 11/1/1 10/2/1 9/3/1
f 9/3/1 8/4/1 7/5/1
f 7/5/1 6/6/1 5/7/1
f 9/3/1 7/5/1 5/7/1
f 5/7/1 4/8/1 3/9/1
f 3/9/1 2/10/1 1/11/1
f 5/7/1 3/9/1 1/11/1
f 9/3/1 5/7/1 1/11/1
f 11/1/1 9/3/1 1/11/1
f 12/12/1 11/1/1 1/11/1
f 1/13/2 2/14/3 14/15/4
f 14/15/4 13/16/5 1/13/2
f 2/14/3 3/17/6 15/18/7
f 15/18/7 14/15/4 2/14/3
f 3/19/6 4/20/8 16/21/9
f 16/21/9 15/22/7 3/19/6
f 4/20/8 5/23/10 17/24/11
f 17/24/11 16/21/9 4/20/8
f 5/23/10 6/25/12 18/26/13
f 18/26/13 17/24/11 5/23/10
f 6/25/12 7/27/14 19/28/15
f 19/28/15 18/26/13 6/25/12
f 7/27/14 8/29/16 20/30/17
f 20/30/17 19/28/15 7/27/14
f 8/29/16 9/31/18 21/32/19
f 21/32/19 20/30/17 8/29/16
f 9/31/18 10/33/20 22/34/21
f 22/34/21 21/32/19 9/31/18
f 10/33/20 11/35/22 23/36/23
f 23/36/23 22/34/21 10/33/20
f 11/35/22 12/37/24 24/38/25
f 24/38/25 23/36/23 11/35/22
f 12/37/24 1/39/2 13/40/5
f 13/40/5 24/38/25 12/37/24
f 109/41/26 110/42/27 111/43/28
f 111/43/28 112/44/29 113/45/30
f 113/45/30 114/46/31 115/47/32
f 111/43/28 113/45/30 115/47/32
f 115/47/32 116/48/33 117/49/34
f 117/49/34 118/50/35 119/51/36
f 115/47/32 117/49/34 119/51/36
f 111/43/28 115/47/32 119/51/36
f 109/41/26 111/43/28 119/51/36
f 120/52/37 109/41/26 119/51/36
f 13/16/5 14/15/4 26/53/38
f 26/53/38 25/54/39 13/16/5
f 14/15/4 15/18/7 27/55/40
f 27/55/40 26/53/38 14/15/4
f 15/18/7 16/56/9 28/57/41
f 28/57/41 27/55/40 15/18/7
f 16/56/9 17/58/11 29/59/42
f 29/59/42 28/57/41 16/56/9
f 17/58/11 18/60/13 30/61/43
f 30/61/43 29/59/42 17/58/11
f 18/60/13 19/62/15 31/63/44
f 31/63/44 30/61/43 18/60/13
f 19/62/15 20/64/17 32/65/45
f 32/65/45 31/63/44 19/62/15
f 20/64/17 21/66/19 33/67/46
f 33/67/46 32/65/45 20/64/17
f 21/66/19 22/68/21 34/69/47
f 34/69/47 33/67/46 21/66/19
f 22/68/21 23/70/23 35/71/48
f 35/71/48 34/69/47 22/68/21
f 23/70/23 24/38/25 36/72/49
f 36/72/49 35/71/48 23/70/23
f 24/38/25 13/40/5 25/73/39
f 25/73/39 36/72/49 24/38/25
f 25/54/39 26/53/38 38/74/3
f 38/74/3 37/75/2 25/54/39
f 26/53/38 27/55/40 39/76/6
f 39/76/6 38/74/3 26/53/38
f 27/55/40 28/57/41 40/77/8
f 40/77/8 39/76/6 27/55/40
f 28/57/41 29/59/42 41/78/10
f 41/78/10 40/77/8 28/57/41
f 29/59/42 30/61/43 42/79/12
f 42/79/12 41/78/10 29/59/42
f 30/61/43 31/63/44 43/80/14
f 43/80/14 42/79/12 30/61/43
f 31/63/44 32/65/45 44/81/16
f 44/81/16 43/80/14 31/63/44
f 32/65/45 33/67/46 45/82/18
f 45/82/18 44/81/16 32/65/45
f 33/67/46 34/69/47 46/83/20
f 46/83/20 45/82/18 33/67/46
f 34/69/47 35/71/48 47/84/22
f 47/84/22 46/83/20 34/69/47
f 35/71/48 36/72/49 48/85/24
f 48/85/24 47/84/22 35/71/48
f 36/72/49 25/73/39 37/86/2
f 37/86/2 48/85/24 36/72/49
f 61/87/2 62/88/3 73/89/3
f 73/89/3 74/90/2 61/87/2
f 62/88/3 63/91/6 84/92/6
f 84/92/6 73/89/3 62/88/3
f 63/91/6 64/93/8 83/94/8
f 83/94/8 84/92/6 63/91/6
f 64/93/8 65/95/10 82/96/10
f 82/96/10 83/94/8 64/93/8
f 65/95/10 66/97/12 81/98/12
f 81/98/12 82/96/10 65/95/10
f 66/97/12 67/99/14 80/100/14
f 80/100/14 81/98/12 66/97/12
f 67/99/14 68/101/16 79/102/16
f 79/102/16 80/100/14 67/99/14
f 68/101/16 69/103/18 78/104/18
f 78/104/18 79/102/16 68/101/16
f 69/103/18 70/105/20 77/106/20
f 77/106/20 78/104/18 69/103/18
f 70/105/20 71/107/22 76/108/22
f 76/108/22 77/106/20 70/105/20
f 71/107/22 72/109/24 75/110/24
f 75/110/24 76/108/22 71/107/22
f 72/109/24 61/111/2 74/112/2
f 74/112/2 75/110/24 72/109/24
f 37/75/1 38/74/1 62/88/1
f 62/88/1 61/87/1 37/75/1
f 38/74/1 39/76/1 63/91/1
f 63/91/1 62/88/1 38/74/1
f 39/76/1 40/77/1 64/93/1
f 64/93/1 63/91/1 39/76/1
f 40/77/1 41/78/1 65/95/1
f 65/95/1 64/93/1 40/77/1
f 41/78/1 42/79/1 66/97/1
f 66/97/1 65/95/1 41/78/1
f 42/79/1 43/80/1 67/99/1
f 67/99/1 66/97/1 42/79/1
f 43/80/1 44/81/1 68/101/1
f 68/101/1 67/99/1 43/80/1
f 44/81/1 45/82/1 69/103/1
f 69/103/1 68/101/1 44/81/1
f 45/82/1 46/83/1 70/105/1
f 70/105/1 69/103/1 45/82/1
f 46/83/1 47/84/1 71/107/1
f 71/107/1 70/105/1 46/83/1
f 47/84/1 48/85/1 72/109/1
f 72/109/1 71/107/1 47/84/1
f 48/85/1 37/86/1 61/111/1
f 61/111/1 72/109/1 48/85/1
f 50/113/50 49/114/50 74/90/50
f 74/90/50 73/89/50 50/113/50
f 49/115/50 60/116/50 75/110/50
f 75/110/50 74/112/50 49/115/50
f 60/116/50 59/117/50 76/108/50
f 76/108/50 75/110/50 60/116/50
f 59/117/50 58/118/50 77/106/50
f 77/106/50 76/108/50 59/117/50
f 58/118/50 57/119/50 78/104/50
f 78/104/50 77/106/50 58/118/50
f 57/119/50 56/120/50 79/102/50
f 79/102/50 78/104/50 57/119/50
f 56/120/50 55/121/50 80/100/50
f 80/100/50 79/102/50 56/120/50
f 55/121/50 54/122/50 81/98/50
f 81/98/50 80/100/50 55/121/50
f 54/122/50 53/123/50 82/96/50
f 82/96/50 81/98/50 54/122/50
f 53/123/50 52/124/50 83/94/50
f 83/94/50 82/96/50 53/123/50
f 52/124/50 51/125/50 84/92/50
f 84/92/50 83/94/50 52/124/50
f 51/125/50 50/113/50 73/89/50
f 73/89/50 84/92/50 51/125/50
f 49/114/51 50/113/52 86/126/53
f 86/126/53 85/127/54 49/114/51
f 50/113/52 51/125/55 87/128/56
f 87/128/56 86/126/53 50/113/52
f 51/125/55 52/124/57 88/129/58
f 88/129/58 87/128/56 51/125/55
f 52/124/57 53/123/59 89/130/60
f 89/130/60 88/129/58 52/124/57
f 53/123/59 54/122/61 90/131/62
f 90/131/62 89/130/60 53/123/59
f 54/122/61 55/121/63 91/132/64
f 91/132/64 90/131/62 54/122/61
f 55/121/63 56/120/65 92/133/66
f 92/133/66 91/132/64 55/121/63
f 56/120/65 57/119/67 93/134/68
f 93/134/68 92/133/66 56/120/65
f 57/119/67 58/118/69 94/135/70
f 94/135/70 93/134/68 57/119/67
f 58/118/69 59/117/71 95/136/72
f 95/136/72 94/135/70 58/118/69
f 59/117/71 60/116/73 96/137/74
f 96/137/74 95/136/72 59/117/71
f 60/116/73 49/115/51 85/138/54
f 85/138/54 96/137/74 60/116/73
f 85/127/54 86/126/53 98/139/75
f 98/139/75 121/140/76 97/141/77
f 85/127/54 98/139/75 97/141/77
f 86/126/53 87/128/56 99/142/78
f 99/142/78 98/139/75 86/126/53
f 88/129/58 100/143/79 126/144/80
f 87/128/56 88/129/58 126/144/80
f 87/128/56 126/144/80 99/142/78
f 88/129/58 89/130/60 101/145/81
f 101/145/81 124/146/82 100/143/79
f 88/129/58 101/145/81 100/143/79
f 89/130/60 90/131/62 102/147/83
f 102/147/83 101/145/81 89/130/60
f 91/132/64 103/148/84 133/149/85
f 91/132/64 133/149/85 129/150/86
f 90/131/62 91/132/64 129/150/86
f 90/131/62 129/150/86 102/147/83
f 91/132/64 92/133/66 104/151/87
f 104/151/87 127/152/88 103/148/84
f 91/132/64 104/151/87 103/148/84
f 92/133/66 93/134/68 105/153/89
f 105/153/89 104/151/87 92/133/66
f 94/135/70 106/154/90 132/155/91
f 93/134/68 94/135/70 132/155/91
f 93/134/68 132/155/91 105/153/89
f 94/135/70 95/136/72 107/156/92
f 107/156/92 130/157/93 106/154/90
f 94/135/70 107/156/92 106/154/90
f 95/136/72 96/137/74 108/158/94
f 108/158/94 107/156/92 95/136/72
f 85/138/54 97/159/77 123/160/95
f 96/137/74 85/138/54 123/160/95
f 96/137/74 123/160/95 108/158/94
f 121/161/96 98/162/97 110/42/27
f 121/161/96 110/42/27 109/41/26
f 122/163/98 121/161/96 109/41/26
f 98/162/97 99/164/99 111/43/28
f 111/43/28 110/42/27 98/162/97
f 99/164/99 126/165/100 125/166/101
f 99/164/99 125/166/101 112/44/29
f 99/164/99 112/44/29 111/43/28
f 124/167/102 101/168/103 113/45/30
f 124/167/102 113/45/30 112/44/29
f 125/166/101 124/167/102 112/44/29
f 101/168/103 102/169/104 114/46/31
f 114/46/31 113/45/30 101/168/103
f 102/169/104 129/170/105 128/171/106
f 102/169/104 128/171/106 115/47/32
f 102/169/104 115/47/32 114/46/31
f 127/172/107 104/173/108 116/48/33
f 127/172/107 116/48/33 115/47/32
f 128/171/106 127/172/107 115/47/32
f 104/173/108 105/174/109 117/49/34
f 117/49/34 116/48/33 104/173/108
f 105/174/109 132/175/110 131/176/111
f 105/174/109 131/176/111 118/50/35
f 105/174/109 118/50/35 117/49/34
f 130/177/112 107/178/113 119/51/36
f 130/177/112 119/51/36 118/50/35
f 131/176/111 130/177/112 118/50/35
f 107/178/113 108/179/114 120/52/37
f 120/52/37 119/51/36 107/178/113
f 108/179/114 123/180/115 122/163/98
f 108/179/114 122/163/98 109/41/26
f 108/179/114 109/41/26 120/52/37
f 97/181/116 121/161/117 122/163/116
f 100/182/118 124/167/119 125/166/118
f 103/183/120 127/172/121 128/171/122
f 128/171/122 133/184/123 103/183/120
f 106/185/124 130/177/125 131/176/124
f 125/166/118 126/165/126 100/182/118
f 122/163/116 123/180/127 97/181/116
f 131/176/124 132/175/128 106/185/124
f 128/171/122 129/170/129 133/184/123
